<?xml version="1.0" encoding="UTF-8" standalone="no"?>
<svg version="1.1" width="310" height="180" xmlns="http://www.w3.org/2000/svg" xmlns:svg="http://www.w3.org/2000/svg">
   <path
      d="m 279.47116,106.85081 c -5.91123,0.23246 -11.86768,0.89712 -17.70868,2.04552 -1.57261,0.29704 -3.28385,0.78489 -4.85968,1.35284 -0.82347,2.74996 -1.53288,5.53472 -2.27466,8.30826 2.01255,-0.38288 4.00791,-0.84943 6.01264,-1.27045 -0.77899,11.36987 -1.62458,22.73545 -2.53082,34.09624 -0.37369,4.60705 -0.672,9.21962 -0.95978,13.83296 2.37076,-0.45429 4.51799,-1.64689 6.8325,-2.30716 1.61798,-0.54346 3.24252,-1.07244 4.83219,-1.69497 0.39867,-0.87975 0.23407,-1.93081 0.40403,-2.88012 0.41881,-4.62841 0.83727,-9.25686 1.25636,-13.88525 3.50561,0.39008 7.0722,0.52436 10.55303,-0.15311 6.0976,-1.09074 11.99683,-4.06554 16.02278,-8.8414 3.2456,-4.02541 4.13598,-9.42934 3.87202,-14.46754 -0.13943,-3.90615 -1.87222,-7.81926 -5.02612,-10.20874 -3.91105,-2.96084 -8.95556,-3.66379 -13.72035,-3.90053 -0.90126,-0.0363 -1.80364,-0.0438 -2.70546,-0.0265 z m -0.51782,8.31874 c 3.06913,-0.012 6.53163,0.9886 8.19694,3.76876 1.39965,2.4026 1.00433,5.31981 0.62354,7.94265 -0.71813,4.31958 -4.00082,7.77983 -7.8037,9.70622 -1.92808,0.93657 -4.1249,1.68567 -6.28903,1.34624 -1.63069,-0.26082 -2.45175,-2.03326 -2.25118,-3.54802 0.3817,-4.47115 0.72993,-8.94588 1.2047,-13.40866 0.16437,-1.0607 0.0702,-2.40039 0.46723,-3.49518 0.88711,-1.72702 3.03951,-2.12817 4.80516,-2.26198 0.34731,-0.0371 0.6977,-0.0407 1.04634,-0.05 z m -62.95454,-7.31992 c -1.49427,0.0193 -2.90733,0.0567 -4.3239,0.13937 -2.79321,0.1247 -5.80191,0.49142 -7.97254,2.43674 -2.912,2.61284 -5.72962,5.33201 -8.60524,7.98584 2.57934,-0.43254 5.112,-1.0892 7.66046,-1.66878 -0.37162,5.6104 -0.74033,11.26305 -1.18168,16.81265 -0.31441,4.54975 -0.77183,9.12625 -1.09902,13.69043 -0.25047,3.11715 -0.38075,6.24585 -0.76546,9.35057 -1.5007,2.86991 -3.0037,5.73862 -4.50529,8.60806 5.40154,0.032 10.82403,0.0522 16.1846,-0.71087 8.59763,-1.13413 17.18958,-3.84733 24.21146,-9.06282 4.44996,-3.32481 7.88733,-7.95211 9.77672,-13.17645 1.68771,-4.69012 2.11627,-9.79047 1.60449,-14.73024 -0.48876,-4.61169 -2.79478,-8.98007 -6.34402,-11.9684 -2.94256,-2.61451 -6.30167,-4.84959 -10.1081,-5.9703 -4.6793,-1.51279 -9.64577,-1.82108 -14.53248,-1.7358 z m 2.88682,7.99589 c 3.97918,-0.06 7.94057,1.83557 10.27029,5.08409 3.22976,4.4439 4.76515,10.04571 4.35505,15.51791 -0.28726,5.26545 -1.56995,10.77761 -5.14686,14.82298 -3.27038,3.70906 -8.19857,5.63264 -13.07972,5.79978 -1.33509,0.0624 -2.6728,0.0611 -4.00889,0.0985 1.17898,-11.73179 1.88412,-23.50482 3.08918,-35.23383 0.15479,-1.5658 0.3101,-3.13154 0.4643,-4.69739 1.28654,-0.60781 2.58787,-1.40217 4.05665,-1.39205 z m -31.34625,-8.3196 c -8.39882,0.38395 -16.81478,0.74976 -25.16142,1.24737 -3.73096,0.21229 -7.46219,0.42036 -11.19325,0.63105 -1.19289,3.13281 -2.38576,6.26562 -3.57865,9.39842 4.66889,0.018 9.33901,-0.0575 14.00644,0.0922 -0.39371,5.86763 -0.58595,11.75136 -1.26536,17.59599 -0.73287,9.57343 -1.47519,19.14666 -2.12252,28.72523 3.95272,-1.38394 7.88248,-2.83336 11.82611,-4.24323 1.30327,-14.03051 2.64365,-28.05763 3.91409,-42.09057 4.45215,0.003 8.90454,-0.005 13.35653,0.004 1.0594,-2.26352 1.76979,-4.68888 2.68976,-7.01684 0.50126,-1.4125 1.06175,-3.03612 1.6478,-4.50739 -1.37317,0.0545 -2.74635,0.10902 -4.11953,0.16352 z m -52.21132,48.28636 q -0.22487,0.0613 -0.59285,0.18399 -0.36799,0.1431 -0.71552,0.1431 -0.28621,0 -0.51108,-0.1431 -0.20443,-0.1431 -0.20443,-0.49064 v -0.12265 q 0.12266,-1.10395 0.20443,-1.86034 0.0818,-0.77686 0.1431,-1.39015 0.0818,-0.63373 0.12267,-1.24703 0.0613,-0.63374 0.1431,-1.45148 0.0818,-0.83816 0.18399,-1.96255 0.12266,-1.14483 0.2862,-2.8416 0.10219,-1.04262 0.18399,-2.12611 0.0818,-1.08349 0.0818,-2.00344 0,-0.6133 -0.10219,-1.12438 -0.0817,-0.53152 -0.32709,-0.8995 -0.22487,-0.38842 -0.63374,-0.59285 -0.40886,-0.20444 -1.04261,-0.20444 -0.4702,0 -1.30836,0.20444 -0.81774,0.20443 -1.63546,0.67462 -0.81773,0.4702 -1.45147,1.24704 -0.63375,0.75641 -0.71552,1.88078 -0.12265,1.5128 -0.22487,2.59629 -0.10219,1.06305 -0.18399,1.81946 -0.0818,0.73594 -0.14311,1.20615 -0.0409,0.47019 -0.0613,0.79728 -0.0204,0.0818 -0.0613,0.44975 -0.0409,0.36798 -0.10218,0.87906 -0.0409,0.51108 -0.10219,1.0835 -0.0409,0.5724 -0.10219,1.08348 -0.0409,0.51109 -0.0818,0.87907 -0.0204,0.36798 -0.0204,0.44975 0,0.16354 0,0.2862 0.0204,0.10219 0.0204,0.20444 0,0.16354 -0.16354,0.28621 -0.1431,0.10218 -0.67463,0.24531 l -5.41747,1.86034 q -0.22486,0.0818 -0.59284,0.20443 -0.36799,0.12266 -0.71552,0.12266 -0.28621,0 -0.51108,-0.1431 -0.20444,-0.1431 -0.20444,-0.49064 l 1.86034,-20.89301 q 0.0613,-0.67462 0.1431,-0.91993 0.10219,-0.26577 0.4702,-0.34755 1.86034,-0.36797 3.82289,-0.73595 1.96254,-0.38843 3.82288,-0.98128 0.16355,0 0.18399,0.0613 0.0409,0.0409 0.0409,0.1431 0,0.0409 -0.0204,0.12266 0,0.0818 -0.0613,0.36798 -0.0409,0.28621 -0.1431,0.87906 -0.0818,0.57241 -0.24532,1.61501 1.41059,-0.81772 2.63719,-1.30836 1.24703,-0.51108 2.33052,-0.77684 1.10394,-0.28622 2.06478,-0.36798 0.96082,-0.10218 1.799,-0.10218 2.8825,0 4.19086,1.75813 1.30837,1.73767 1.30837,5.23346 0,0.49065 -0.0204,1.02217 -0.0204,0.51108 -0.0818,1.06305 l -0.94039,8.7906 q -0.10218,0.85861 -0.12266,1.59457 -0.0204,0.71551 -0.0204,1.67635 0,0.16355 0,0.28621 0.0204,0.10218 0.0204,0.18399 0,0.18399 -0.16354,0.28619 -0.14311,0.10219 -0.67464,0.26577 z m -28.12991,-23.55063 q 1.9421,0 3.51623,0.73596 1.59457,0.71551 2.71896,1.88078 1.14482,1.14482 1.75812,2.57585 0.6133,1.43103 0.6133,2.86205 0,1.26749 -0.77686,2.55541 -0.77684,1.26748 -2.18742,2.28964 -1.39014,1.02217 -3.3527,1.65591 -1.96254,0.63375 -4.31351,0.63375 -1.2266,0 -2.57585,-0.24534 0.0818,0.87907 0.51108,1.51281 0.42931,0.63374 1.0835,1.0426 0.65418,0.40888 1.4719,0.6133 0.83818,0.18399 1.71724,0.18399 0.98127,0 1.88077,-0.16355 0.91994,-0.18399 1.75812,-0.47019 0.83817,-0.2862 1.61502,-0.63373 0.77685,-0.34754 1.47192,-0.69507 0.18399,-0.0409 0.30664,-0.0613 0.14311,-0.0409 0.26576,-0.0409 0,0 -0.0204,0.32709 0,0.32709 0,0.91995 0,0.59285 -0.0204,1.43103 0,0.83817 -0.0204,1.86033 0.0613,0.10219 0.0818,0.20444 0.0204,0.10219 0.0204,0.16354 0,0.24531 -0.44975,0.53153 -0.44975,0.2862 -1.18571,0.59284 -0.71552,0.30666 -1.6559,0.59287 -0.91995,0.28621 -1.88079,0.51107 -0.96083,0.24532 -1.86032,0.36798 -0.89951,0.1431 -1.57414,0.1431 -2.20786,0 -4.29307,-0.77684 -2.064769,-0.75639 -3.679779,-2.18742 -1.594577,-1.43103 -2.555407,-3.47536 -0.96083,-2.04433 -0.96083,-4.59973 0,-2.67806 0.91993,-5.0086 0.91996,-2.35097 2.575857,-4.08865 1.67635,-1.73767 3.986419,-2.73939 2.3101,-1.00172 5.09038,-1.00172 z m -0.24532,5.43791 q -0.83818,0 -1.55369,0.36798 -0.69507,0.34753 -1.28792,1.02216 -0.57241,0.65419 -1.00172,1.59457 -0.42931,0.91995 -0.69508,2.04433 2.10566,-0.36798 3.4958,-0.77685 1.39015,-0.40887 2.22832,-0.81773 0.83816,-0.4293 1.1857,-0.83817 0.34753,-0.4293 0.34753,-0.81773 0,-0.36798 -0.28619,-0.69507 -0.26577,-0.32709 -0.67463,-0.57241 -0.40887,-0.24532 -0.89951,-0.36797 -0.47019,-0.14311 -0.85861,-0.14311 z m -29.888025,3.10737 q -0.122667,1.96256 -0.224875,3.18915 -0.08179,1.2266 -0.143104,2.00343 -0.06129,0.75641 -0.102186,1.20615 -0.0409,0.42932 -0.06129,0.81774 0.470197,1.22659 1.390142,2.00343 0.919946,0.75641 2.20787,0.75641 1.124382,0 1.962557,-0.69507 0.858613,-0.71552 1.41058,-1.8399 0.572415,-1.12437 0.858623,-2.51451 0.286197,-1.39015 0.286197,-2.75985 0,-1.12437 -0.204426,-2.0852 -0.183989,-0.96084 -0.572416,-1.6559 -0.388415,-0.71552 -0.981268,-1.10395 -0.572415,-0.40885 -1.369705,-0.40885 -0.654186,0 -1.308361,0.26575 -0.633749,0.24532 -1.226601,0.65418 -0.592853,0.38843 -1.083487,0.89951 -0.470197,0.49064 -0.776853,0.96083 z m 0.408863,-5.98987 q 1.717236,-1.16527 3.598012,-1.86034 1.880777,-0.69507 3.925105,-0.69507 1.921662,0 3.311804,0.79729 1.41059,0.77685 2.330525,2.1261 0.919957,1.32881 1.349257,3.06649 0.44976,1.73767 0.44976,3.6389 0,1.6559 -0.327093,3.35269 -0.327093,1.69679 -0.960842,3.29136 -0.633737,1.57413 -1.57412,2.96428 -0.940394,1.39013 -2.166985,2.43274 -1.206153,1.02216 -2.698514,1.61502 -1.492361,0.59285 -3.230033,0.59285 -1.533247,0 -2.943826,-0.61329 -1.390143,-0.61331 -2.616733,-1.59458 0,0.10219 -0.06129,0.7564 -0.0409,0.63374 -0.122655,1.55369 -0.08179,0.91994 -0.18399,1.96256 -0.102186,1.06303 -0.183989,1.98299 -0.08179,0.91995 -0.143104,1.55368 -0.0409,0.65419 -0.0409,0.7564 0,0.16355 0,0.26577 0.0205,0.12265 0.0205,0.22487 0,0.16354 -0.163552,0.26576 -0.143104,0.12266 -0.674623,0.26576 l -5.376577,1.36971 q -0.224877,0.0613 -0.592855,0.18399 -0.367978,0.1431 -0.715514,0.1431 -0.286205,0 -0.511081,-0.1431 -0.204433,-0.14311 -0.204433,-0.53153 l 2.494077,-29.92893 q 0.06133,-0.67462 0.143103,-0.91993 0.102219,-0.26577 0.470195,-0.34755 1.860336,-0.36797 3.822888,-0.73595 1.962558,-0.38843 3.822887,-0.98128 0.163551,0 0.183989,0.0613 0.0409,0.0409 0.0409,0.1431 0,0.0409 -0.02039,0.12266 0,0.0818 -0.06129,0.36798 -0.0409,0.28621 -0.143104,0.87906 -0.08179,0.57241 -0.245322,1.61501 z m -33.281617,6.31696 q 0,1.47192 0.306649,2.96428 0.327093,1.47191 1.06305,2.65762 0.735956,1.18571 1.942109,1.92167 1.206152,0.73595 2.984715,0.73595 1.369698,-0.0818 2.39186,-0.55198 1.042605,-0.49063 1.778564,-1.24702 0.7564,-0.77686 1.247037,-1.75812 0.490639,-1.00173 0.776844,-2.08522 0.286206,-1.10393 0.388422,-2.24875 0.122659,-1.14482 0.122659,-2.20788 0,-1.45147 -0.388422,-2.80072 -0.38842,-1.3697 -1.165264,-2.41231 -0.776844,-1.0426 -1.942109,-1.67634 -1.144822,-0.63374 -2.678067,-0.63374 -1.206151,0 -2.187428,0.44975 -0.960833,0.44975 -1.717233,1.20615 -0.756401,0.73596 -1.308368,1.71724 -0.531525,0.96083 -0.899503,2.00343 -0.347537,1.02217 -0.531526,2.06478 -0.163545,1.02216 -0.183989,1.90121 z m 3.986435,15.00535 q -3.066487,0 -5.478792,-1.14482 -2.412303,-1.14482 -4.088651,-3.08693 -1.655903,-1.96256 -2.555406,-4.51796 -0.879059,-2.57586 -0.879059,-5.43791 0,-3.20959 0.899502,-5.90809 0.919946,-2.71895 2.555407,-4.80418 1.63546,-2.10565 3.884218,-3.53668 2.269201,-1.45146 4.967711,-2.14653 0.245319,0 0.367978,-0.38843 0.143103,-0.38841 0.245319,-0.85862 0.102219,-0.47019 0.245318,-0.85861 0.143104,-0.38842 0.408866,-0.38842 3.965991,0.40885 7.134696,1.41058 3.168703,0.98128 5.376575,2.82117 2.207872,1.83989 3.373136,4.66106 1.18571,2.80072 1.18571,6.84849 0,2.5963 -0.633741,4.88594 -0.633741,2.28964 -1.778563,4.23175 -1.144823,1.92167 -2.759839,3.45491 -1.594575,1.5128 -3.557126,2.57585 -1.962552,1.06306 -4.231754,1.61501 -2.248758,0.57242 -4.681505,0.57242 z M 23.164119,169.90561 C 9.6770049,163.86792 4.7345178,140.77593 13.233762,123.50961 24.46958,100.6839 49.776751,88.282227 81.244552,90.181143 c 7.579996,0.457418 16.993822,0.84566 20.919608,0.862769 3.92577,0.01713 7.13743,0.106233 7.137,0.198085 -0.006,1.160328 -12.524066,3.552958 -24.611156,4.703875 -33.163163,3.157738 -54.08209,14.282018 -63.788404,33.921408 -8.583076,17.36668 -2.150423,39.42563 11.513925,39.48371 2.651824,0.0113 3.173632,0.25569 2.069356,0.96933 -2.092352,1.35219 -7.84456,1.14147 -11.320762,-0.41471 z M 92.56532,86.528086 C 76.2655,84.90078 74.042608,84.134128 83.213379,83.302722 124.83801,79.529078 150.77202,70.903504 161.0642,57.409766 c 3.37481,-4.424597 3.29952,-4.454464 -8.05981,-3.197122 -23.54351,2.605991 -42.83023,9.150465 -55.584356,18.861198 -6.879088,5.237585 -7.536977,5.408745 -4.100167,1.066682 14.788693,-18.683983 38.818813,-29.34637 71.666253,-31.798988 16.84447,-1.257717 15.59687,-1.716837 13.6023,5.005726 -8.50143,28.653332 -41.39677,43.636135 -86.0231,39.180824 z M 78.818871,76.712355 C 78.598816,54.718014 98.605884,28.357707 127.56051,12.49282 c 10.2411,-5.6113261 9.79569,-5.9094312 9.79544,6.555873 -2.4e-4,11.772353 -2.14972,17.375894 -9.88093,25.75884 -4.87582,5.286855 -4.8876,5.224039 -0.83097,-4.429864 2.52243,-6.002878 4.41565,-17.719454 2.86318,-17.719454 -7.81563,0 -39.507078,33.838448 -47.35718,50.565495 -3.154424,6.721441 -3.297324,6.871112 -3.331179,3.488645 z" />
</svg>