<svg xmlns="http://www.w3.org/2000/svg">
    <path
        d="m1.132339,1.196806l25.235283,0c9.458852,0.027248 16.224072,6.644552 16.3136,16.080048q0.128454,13.80681 0,27.636975c-0.066173,8.283307 -5.48847,14.709877 -13.300781,15.95938c-2.452295,0.389253 -2.479543,0.389253 -2.479543,-2.043579l0,-39.260075c0,-2.611889 0,-2.569071 -2.572963,-2.631351c-3.612269,-0.081743 -7.267357,0.085636 -10.821238,-0.420393c-6.741865,-0.965348 -12.358788,-7.512586 -12.506704,-14.090965a10.899089,10.899089 0 0 1 0.132346,-1.23004z"
        fill="#168f78" />
    <path d="m43.50018,1.196812l23.090305,0l-11.700591,19.373446l-11.389714,-19.373446z" fill="#f08b01" />
</svg>